<svg version="1.1" id="Layer_1" xmlns="http://www.w3.org/2000/svg" x="0" y="0"
    viewBox="0 0 100 100" xml:space="preserve">
    <g>
        <path
            d="M83.9 26.8c0-2-1.3-3.7-3-4.4-.7-2.2-2.5-4-4.8-4.5-.5-3.1-3.2-5.4-6.4-5.4-2.9 0-5.4 1.9-6.3 4.6-.8-.3-1.6-.5-2.5-.5-.6 0-1.2.1-1.8.3-1.1-2-3.3-3.4-5.8-3.4-.8 0-1.5.1-2.2.4-1-2.2-3.3-3.8-5.9-3.8-3.5 0-6.3 2.7-6.5 6.1-.9-.4-1.9-.7-2.9-.7-.6 0-1.1.1-1.6.2-1.2-1.4-3-2.3-4.9-2.3-3.6 0-6.6 2.9-6.6 6.6 0 .3 0 .7.1 1-1.4 0-2.7.5-3.8 1.3-1.6 1.2-2.7 3.1-2.7 5.3 0 2.2 1 4.1 2.7 5.3.7.5 1.6.9 2.5 1.1h59.1c.4-.8.7-1.8.8-2.8 1.3-.8 2.5-2.5 2.5-4.4z"
            fill="#f4e6c8" stroke="#333" stroke-width="3.5"
            stroke-miterlimit="10" />
        <path
            d="M42.6 29.4c-1.9-1.9-1.8-5.5.2-7.3s5.6-1.5 7.3.6c1.2 1.5 1.1 4.1-.3 5.5"
            fill="none" stroke="#333" stroke-width="3.5"
            stroke-miterlimit="10" />
        <path d="M51 25c.9-1.5 2.8-2.2 4.5-1.7 1.6.5 2.9 2.2 2.8 3.9"
            fill="none" stroke="#333" stroke-width="3.5"
            stroke-miterlimit="10" />
        <path d="M76 17.9c-.9 0-7.3-.5-7.2 6" fill="#f4e6c8" stroke="#333"
            stroke-width="3.5" stroke-miterlimit="10" />
    </g>
    <g>
        <path d="M36.6 90h-7c-1.5 0-2.7-1.1-2.9-2.6l-5.5-53.6h11.9L36.6 90z"
            fill="#e15c64" stroke="#333" stroke-width="3.5"
            stroke-miterlimit="10" />
        <path fill="#fff" stroke="#333" stroke-width="3.5"
            stroke-miterlimit="10" d="M46.2 90h-9.6l-3.4-56.2H45z" />
        <path fill="#e15c64" stroke="#333" stroke-width="3.5"
            stroke-miterlimit="10" d="M55.8 90h-9.6L45 33.8h11.9z" />
        <path fill="#fff" stroke="#333" stroke-width="3.5"
            stroke-miterlimit="10" d="M65.3 90h-9.5l1.1-56.2h11.9z" />
        <path d="M72.3 90h-7l3.4-56.2h11.9l-5.5 53.6c-.1 1.5-1.3 2.6-2.8 2.6z"
            fill="#e15c64" stroke="#333" stroke-width="3.5"
            stroke-miterlimit="10" />
        <path
            d="M56.9 66.7h-12c-2.8 0-5-2.2-5-5v-4.5c0-2.8 2.2-5 5-5h12c2.8 0 5 2.2 5 5v4.5c0 2.8-2.2 5-5 5z"
            fill="#f7b26a" stroke="#333" stroke-width="3.5"
            stroke-miterlimit="10" />
    </g>
    <metadata xmlns:d="https://loading.io/stock/">
        <d:name>popcorn</d:name>
        <d:tags>popcorn,movie,theatre</d:tags>
        <d:license>by</d:license>
        <d:slug>u998bl</d:slug>
    </metadata>
</svg>